<svg xmlns="http://www.w3.org/2000/svg" width="1302" height="579" fill="none"><path fill-rule="evenodd" clip-rule="evenodd" d="m506.1 15 34 28h188l-24.9 20.5H540.1L498.3 29H136.7L32.3 115.2v14l-18.2 15.1v-41L125 10.8h368l5.3 4.3h7.8Zm-379.8 0L16.7 105.5v9.7l109.6-91.5V15Z" fill="url(#a)" fill-opacity=".3"/><path d="M16.7 481.5v20.4l58.7 48.5h26.1l-84.8-69Z" fill="url(#b)" fill-opacity=".3"/><path d="M14 394.2v65.7l41.8 34.5v-21.6l-23.5-19.4v-44.1l-18.2-15.1Z" fill="url(#c)" fill-opacity=".3"/><path d="M801.1 15h22.2l-17 17.2h-20.9L801.1 15Z" fill="url(#d)" fill-opacity=".3"/><path d="M839 15H861l-17 17.2h-20.8L839 15Z" fill="url(#e)" fill-opacity=".3"/><path fill-rule="evenodd" clip-rule="evenodd" d="m1196.6 58.1-18.3-15h84.9l37.8 31.2v71l-19.6-16V84L1250.1 58h-53.5ZM1297 75.3l-34-28v6.5l34 28v-6.5Z" fill="url(#f)" fill-opacity=".3"/><path fill-rule="evenodd" clip-rule="evenodd" d="m1301 520.3-37.8 31.2H957.7l19.6-16.2h271.5l32.6-26.9v-73.3L1301 419v101.3Zm-13-2.2h10.4l-36.6 30.2h-10.4l36.5-30.2Z" fill="url(#g)" fill-opacity=".3"/><path d="m319.5 551.5 28.7-23.7h325l28.7 23.7h22.2l-44.4-36.6h-338l-44.4 36.6h22.2Z" fill="url(#h)" fill-opacity=".3"/><path d="M495.7 542.9h22.2l-17 17.2H480l15.7-17.2Z" fill="url(#i)" fill-opacity=".3"/><path d="M457.8 542.9H480L463 560h-20.8l15.6-17.2Z" fill="url(#j)" fill-opacity=".3"/><path d="M380.8 542.9H403L386 560h-20.8l15.6-17.2Z" fill="url(#k)" fill-opacity=".3"/><path d="M14 165.9 50.7 196v118.6l-36.5 30.1v49.5l18.2 15v44.3l23.5 19.3v21.6l69.2 57.1h172.3l44.4-36.6h338l44.4 36.6h233.6l19.6-16.2h271.5l32.6-26.9v-73.3L1301 419v-19.4l-36.5-30.2V225.1L1301 195v-49.6l-19.6-16.2V84L1250.1 58h-53.5l-18.3-15H728l-24.8 20.4H540.1L498.3 29H136.7L32.3 115.2v14l-18.2 15.1V166Z" fill="url(#l)" fill-opacity=".3"/><path fill-rule="evenodd" clip-rule="evenodd" d="m506.1 15 34 28h188l-24.9 20.5H540.1L498.3 29H136.7L32.3 115.2v14l-18.2 15.1v-41L125 10.8h368l5.3 4.3h7.8Zm-379.8 0L16.7 105.5v9.7l109.6-91.5V15Z" fill="#FF5917"/><path d="M16.7 481.5v20.4l58.7 48.5h26.1l-84.8-69ZM14 394.2v65.7l41.8 34.5v-21.6l-23.5-19.4v-44.1l-18.2-15.1ZM801.1 15h22.2l-17 17.2h-20.9L801.1 15ZM839 15H861l-17 17.2h-20.8L839 15Z" fill="#FF5917"/><path fill-rule="evenodd" clip-rule="evenodd" d="m1196.6 58.1-18.3-15h84.9l37.8 31.2v71l-19.6-16V84L1250.1 58h-53.5ZM1297 75.3l-34-28v6.5l34 28v-6.5ZM1301 520.3l-37.8 31.2H957.7l19.6-16.2h271.5l32.6-26.9v-73.3L1301 419v101.3Zm-13-2.2h10.4l-36.6 30.2h-10.4l36.5-30.2Z" fill="#FF5917"/><path d="m319.5 551.5 28.7-23.7h325l28.7 23.7h22.2l-44.4-36.6h-338l-44.4 36.6h22.2Z" fill="#FF5917"/><path d="M495.7 542.9h22.2l-17 17.2H480l15.7-17.2ZM457.8 542.9H480L463 560h-20.8l15.6-17.2ZM380.8 542.9H403L386 560h-20.8l15.6-17.2Z" fill="#FF5917"/><path d="m14 103.4-.3-.4-.1.4h.5Zm0 62.5h-.4l.1.3.4-.3ZM50.7 196h.5c0-.1 0-.3-.2-.4l-.3.4Zm0 118.6.3.3.2-.3h-.5Zm-36.5 30.1-.4-.4-.1.4h.5ZM14 460h-.5l.1.4.4-.4ZM125 551.5l-.3.4.3.1v-.5Zm194.5 0v.5l.3-.1-.3-.4Zm28.7-23.7v-.5l-.3.1.3.4Zm325 0 .3-.4-.3-.1v.5Zm590 23.7v.5l.3-.1-.3-.4Zm37.8-31.2.3.3.2-.3h-.5Zm0-120.7h.5c0-.2 0-.3-.2-.4l-.3.4Zm-36.5-30.2h-.5l.1.4.4-.4Zm0-144.3-.4-.4-.1.4h.5ZM1301 195l.3.3.2-.3h-.5Zm0-120.7h.5c0-.2 0-.3-.2-.4l-.3.4ZM1263.2 43l.3-.4h-.3v.4ZM540 43l-.4.4.4.1V43Zm-34-28 .3-.4h-.3v.4Zm-7.8 0-.3.4.3.1V15Zm-5.2-4.3.3-.4-.3-.1v.5Zm-368.1 0v-.5l-.3.1.3.4ZM32.3 129.2l.3.4c.2 0 .2-.2.2-.4h-.5Zm0-14-.3-.4-.2.4h.5ZM136.7 29v-.5l-.3.1.3.4Zm361.6 0 .3-.4h-.3v.4ZM540 63.5l-.4.4.4.1v-.5Zm163.1 0v.5l.3-.1-.3-.4Zm-686.5 42-.4-.4-.1.4h.5ZM126.3 15h.5a.5.5 0 0 0-.8-.4l.3.4Zm0 8.7.3.4.2-.4h-.5ZM16.7 115.2h-.5a.5.5 0 0 0 .8.4l-.3-.4Zm-12.6-1a.5.5 0 0 0-1 0h1Zm-.5 58.1h-.5c0 .2 0 .3.2.4l.3-.4Zm34 28h.4l-.1-.3-.4.3Zm-.6 99.2a.5.5 0 0 0 1 0h-1Zm-35.5 29a.5.5 0 0 0-1 0h1Zm-1 199.3a.5.5 0 0 0 1 0h-1Zm16.2-46.3.3-.4a.5.5 0 0 0-.8.4h.5Zm0 20.4h-.5l.1.4.4-.4Zm58.7 48.5-.3.4.3.1v-.5Zm26.1 0v.5a.5.5 0 0 0 .3-.9l-.3.4ZM32.3 409.3h.5c0-.2 0-.3-.2-.4l-.3.4Zm0 44.1h-.5c0 .2 0 .3.2.4l.3-.4Zm23.5 19.4h.5c0-.1 0-.2-.2-.3l-.3.3ZM557 14.5a.5.5 0 0 0 0 1v-1Zm156.7.5.3-.4h-.3v.4Zm10.4 8.6-.3.4.3.1v-.5Zm28.7 0v.5h.3l-.3-.5ZM780.2 1V.5l-.3.1.3.4Zm188 0 .3-.4-.3-.1V1Zm17 14-.4.4.3.1V15Zm148.7.5c.3 0 .5-.2.5-.5s-.2-.5-.5-.5v1ZM801.1 15v-.5c-.1 0-.3 0-.4.2l.4.3Zm22.2 0 .3.4a.5.5 0 0 0-.3-.9v.5Zm-17 17.2v.5l.4-.1-.4-.4Zm-20.9 0-.3-.3a.5.5 0 0 0 .3.8v-.5ZM839 15v-.5c-.2 0-.3 0-.4.2l.4.3Zm22.1 0 .4.4a.5.5 0 0 0-.4-.9v.5Zm-17 17.2v.5l.4-.1-.3-.4Zm-20.8 0-.4-.3a.5.5 0 0 0 .4.8v-.5ZM878 15v-.5c-.1 0-.3 0-.4.2l.4.3Zm22.2 0 .4.4a.5.5 0 0 0-.4-.9v.5Zm-17 17.2v.5l.4-.1-.4-.4Zm-20.9 0-.3-.3a.5.5 0 0 0 .3.8v-.5ZM916 15v-.5c-.2 0-.3 0-.4.2l.4.3Zm22.1 0 .4.4a.5.5 0 0 0-.4-.9v.5Zm-17 17.2v.5l.4-.1-.3-.4Zm-20.8 0-.4-.3a.5.5 0 0 0 .4.8v-.5Zm48.3-2.6a.5.5 0 0 0 0 1v-1Zm315.9.5.3-.4-.3-.1v.5Zm31 26.2c.2.2.5.2.7 0 .1-.2.1-.6-.1-.7l-.6.7ZM1178.3 43v-.5c-.2 0-.4.2-.5.4 0 .2 0 .4.2.5l.3-.4Zm18.3 15.1-.3.4.3.1v-.5Zm53.5 0 .3-.4h-.3v.4Zm31.3 25.9h.5c0-.2 0-.3-.2-.4l-.3.4Zm0 45.2h-.5c0 .2 0 .3.2.4l.3-.4Zm19.6 16.2-.3.4h.5c.2 0 .3-.2.3-.4h-.5Zm-37.8-98 .3-.5a.5.5 0 0 0-.6 0c-.1 0-.3.2-.3.4h.6Zm33.9 28h.5c0-.2 0-.3-.2-.4l-.3.3Zm0 6.4-.3.4h.5c.2 0 .3-.2.3-.4h-.5Zm-34-28h-.4l.1.4.4-.4Zm18.6 138.3c.3-.2.3-.5.1-.7a.5.5 0 0 0-.7 0l.6.7ZM1245 222l-.3-.4c-.2.1-.2.2-.2.4h.5Zm-.5 35.5c0 .3.2.5.5.5s.5-.2.5-.5h-1Zm1 76.4c0-.2-.3-.5-.5-.5-.3 0-.5.3-.5.5h1Zm-.5 44.2h-.5c0 .2 0 .3.2.4l.3-.4Zm36.2 30.6c.2.2.5.1.7 0 .2-.3.2-.6 0-.8l-.7.8Zm.3 26.5-.3-.4-.2.4h.5Zm0 73.3.3.4c.2-.1.2-.2.2-.4h-.5Zm-32.6 27v.4h.3l-.3-.5Zm-271.5 0v-.6c-.1 0-.2 0-.3.2l.3.3Zm321-17.3.4.4c.2-.1.2-.4.2-.6-.1-.2-.3-.3-.5-.3v.5Zm-10.3 0v-.5l-.4.1.4.4Zm-36.6 30.2-.3-.4c-.2.1-.2.3-.2.5.1.2.3.4.5.4v-.5Zm10.4 0v.5l.4-.1-.4-.4Zm-582-33.4.2-.4-.3-.1v.5Zm-338.1 0v-.5h-.4l.4.5ZM17 554.4a.5.5 0 1 0-.7.7l.7-.7Zm26.8 23.4a.5.5 0 1 0 .6-.8l-.6.8ZM17 536a.5.5 0 0 0-.7.8l.7-.8Zm50.6 42.4-.4.4.4.1v-.5Zm519.4 0v.5h.4l-.4-.5Zm21-17.2v-.5l-.4.1.3.4Zm49.5 0v.5l.3-.1-.3-.4Zm-104.4-9.7v-.5l-.3.1.3.4ZM527 573.1v.5c.1 0 .2 0 .3-.2l-.3-.3Zm-104.4-.5a.5.5 0 0 0 0 1v-1Zm-41.8-29.7v-.5l-.4.1.4.4Zm22.2 0 .4.3a.5.5 0 0 0-.4-.8v.5ZM386 560v.5l.4-.1-.4-.4Zm-20.8 0-.4-.3a.5.5 0 0 0 .4.8v-.5Zm53.5-17.2v-.5l-.4.1.4.4Zm22.2 0 .3.3a.5.5 0 0 0-.3-.8v.5Zm-17 17.2v.5l.3-.1-.3-.4Zm-20.9 0-.4-.3a.5.5 0 0 0 .4.8v-.5Zm54.8-17.2v-.5l-.3.1.3.4Zm22.2 0 .4.3a.5.5 0 0 0-.4-.8v.5ZM463 560v.5l.4-.1-.4-.4Zm-20.8 0-.4-.3a.5.5 0 0 0 .4.8v-.5Zm53.5-17.2v-.5l-.4.1.4.4Zm22.2 0 .3.3a.5.5 0 0 0-.3-.8v.5Zm-17 17.2v.5l.4-.1-.4-.4Zm-20.9 0-.4-.3a.5.5 0 0 0 .4.8v-.5ZM13.7 166.2l36.6 30.2.6-.8-36.5-30.1-.7.7ZM50.1 196v118.6h1V196h-1Zm.2 118.2-36.6 30.1.7.8L50.9 315l-.6-.7Zm269.5 237.7 28.7-23.7-.6-.8-28.7 23.7.6.8Zm28.4-23.6h325v-1h-325v1Zm324.7-.1 28.7 23.7.6-.8-28.7-23.7-.6.8Zm590.6 23.7 37.8-31.3-.6-.7-37.9 31.2.7.8Zm37.8-152.7-36.5-30.2-.7.8 36.6 30.2.6-.8Zm-36.3-29.8V225.1h-1v144.3h1Zm-.2-143.9 36.5-30.2-.6-.7-36.6 30.1.7.8Zm36.7-30.5V74.3h-1V195h1Zm-.2-121.1-37.8-31.3-.7.8 37.9 31.3.6-.8Zm-761-31.3-33.9-28-.6.8 34 28 .6-.8Zm-34.2-28h-7.8v1h7.8v-1Zm-7.5 0-5.2-4.3-.6.8 5.2 4.3.6-.8Zm-5.5-4.4H125v1h368v-1Zm-368.4.1L13.7 103l.7.7 111-92.6-.7-.8Zm-111.1 93v41h1v-41h-1Zm0 41V166h1v-21.6h-1Zm.8.4 18.2-15-.6-.9L13.7 144l.7.8Zm18.4-15.5v-14h-1v14h1Zm-.2-13.6 104.5-86.2-.7-.8L32 114.8l.6.8Zm104.1-86h361.6v-1H136.7v1Zm361.3-.2 41.7 34.5.7-.8-41.8-34.5-.6.8ZM540 64h163.2v-1H540.1v1Zm723.2-21.5H728v1h535.2v-1Zm-535.2 0H540v1h188v-1ZM703.5 64l24.8-20.5-.6-.8-24.8 20.5.6.8ZM17 105.9l109.6-90.5-.6-.8-109.7 90.5.7.8ZM125.8 15v8.7h1V15h-1Zm.2 8.3L16.3 114.8l.7.8 109.6-91.5-.6-.8Zm-108.8 92v-9.8h-1v9.7h1Zm-14-1.2v58.2h1v-58.2h-1Zm0 58.6 34 28 .7-.7-34-28-.6.7ZM37 200.3v99.2h1v-99.2h-1ZM.5 328.6v199.2h1V328.6h-1Zm15.7 152.9v20.4h1v-20.4h-1Zm.1 20.8 58.8 48.5.6-.8L17 501.6l-.7.7ZM75.4 551h26.1v-1H75.4v1Zm26.4-.9L17 481l-.7.9 84.9 69 .6-.9ZM13.6 344.7v49.5h1v-49.5h-1Zm0 49.5v65.7h1v-65.7h-1Zm.1.4 18.3 15 .6-.7-18.2-15.1-.7.8Zm18.1 14.7v44.1h1v-44.1h-1Zm.2 44.5 23.5 19.4.6-.7L32.6 453l-.6.7Zm-18.3 6.5 41.8 34.5.6-.8-41.7-34.5-.7.8Zm41.8 34.5 69.2 57 .6-.7-69.2-57-.6.7Zm-.2-22v21.6h1v-21.6h-1ZM557 15.5h156.7v-1H557v1Zm156.3-.1 10.5 8.6.6-.8-10.4-8.6-.7.8Zm10.8 8.7h28.7v-1h-28.7v1Zm29 0 27.4-22.7-.6-.8-27.4 22.6.6.8Zm27.1-22.6h188v-1h-188v1Zm187.6-.1 17 14 .7-.8-17-14-.6.8Zm17.3 14.1H1134v-1H985.1v1Zm-184 0h22.2v-1H801v1Zm21.8-.8-17 17.2.8.7 17-17.2-.8-.7Zm-16.6 17h-20.9v1h21v-1Zm-20.5.9 15.7-17.3-.8-.6-15.6 17.2.7.7Zm53.2-17H861v-1H839v1Zm21.8-1-17 17.3.7.7 17-17.2-.7-.7Zm-16.6 17.1h-21v1h21v-1Zm-20.5.9 15.6-17.3-.7-.6-15.7 17.2.8.7Zm54.4-17h22.2v-1h-22.2v1Zm21.8-1L883 32l.8.7 17-17.2-.8-.7Zm-16.6 17.1h-20.9v1h21v-1Zm-20.5.9 15.7-17.3-.8-.6-15.6 17.2.7.7Zm53.2-17H938v-1H916v1Zm21.8-1-17 17.3.7.7 17-17.2-.7-.7Zm-16.6 17.1h-20.9v1h20.9v-1Zm-20.5.9 15.6-17.3-.7-.6-15.7 17.2.8.7Zm47.9-2h315.9v-1h-316v1Zm315.5-.1 31.4 25.8.6-.7-31.3-25.9-.7.8Zm-86.1 13 18.3 15 .6-.8-18.3-15-.6.7Zm18.6 15.1h53.5v-1h-53.5v1Zm53.2-.1 31.3 25.9.6-.8-31.3-25.9-.6.8Zm31.1 25.5v45.2h1V84h-1Zm.2 45.6 19.6 16.2.6-.8-19.6-16.2-.6.8Zm20.4 15.8V74.3h-1v71h1Zm-38.3-102.9h-84.9v1h84.9v-1Zm-.4 5.2 34 28 .6-.7-34-28-.6.7Zm33.8 27.6v6.5h1v-6.5h-1Zm.8 6.1-34-28-.6.8 34 28 .6-.8Zm-33.8-27.6v-6.5h-1v6.5h1Zm17.5 137.5-36.5 30.2.6.8 36.5-30.2-.6-.8Zm-36.7 30.6v35.5h1V222h-1Zm0 112V378h1v-44.2h-1Zm.2 44.5 36.5 30.2.6-.8-36.5-30.2-.6.8Zm56.9 141.9V419h-1v101.3h1Zm0-101.3v-19.4h-1V419h1Zm-.8-.4-19.6 16.1.6.8 19.6-16.1-.6-.8Zm-19.8 16.5v73.3h1v-73.3h-1Zm.2 73-32.6 26.9.6.7 32.6-27-.6-.7Zm-32.3 26.7H977.3v1h271.5v-1Zm-291 17.2h305.4v-1H957.7v1Zm19.2-17L957.4 551l.6.8 19.6-16.2-.6-.7Zm321.4-17.4h-10.5v1h10.5v-1Zm-10.8.1-36.5 30.2.6.8 36.6-30.2-.7-.8Zm-36.2 31h10.4v-1h-10.4v1Zm10.8 0 36.5-30.2-.6-.8-36.6 30.2.7.8ZM701.9 552h22.2v-1h-22.2v1Zm22.2 0h233.6v-1H724.1v1Zm.3-.9L680 514.5l-.6.8 44.4 36.6.6-.8Zm-44.7-36.7h-338v1h338v-1ZM125 552h172.3v-1H125v1Zm172.3 0h22.2v-1h-22.2v1Zm44-37.5L297 551l.6.8 44.4-36.6-.7-.8ZM16.3 555l27.5 22.6.6-.7L17 554.4l-.7.7Zm0-18.3 51 42 .6-.7-51-42-.6.7Zm51.3 42.1H587v-1H67.6v1Zm519.8 0 20.8-17.3-.6-.8-20.9 17.3.7.7Zm20.5-17.2h49.6v-1H608v1Zm50-.1 11.7-9.7-.6-.8-11.8 9.7.6.8Zm11.4-9.6h32.6v-1h-32.6v1Zm-116.5-.9-26.1 21.6.6.7 26.1-21.5-.6-.8ZM527 572.6H422.6v1H527v-1Zm26.1-20.6h116.2v-1H553v1Zm-172.3-8.6H403v-1h-22.2v1Zm21.9-.9-17 17.3.7.7 17-17.3-.7-.7ZM386 559.6h-20.8v1H386v-1Zm-20.5.9 15.7-17.3-.8-.7-15.6 17.3.7.7Zm53.2-17.1h22.2v-1h-22.2v1Zm21.8-.9-17 17.3.7.7 17-17.3-.7-.7Zm-16.6 17.1H403v1H424v-1Zm-20.5.9 15.6-17.3-.7-.7-15.7 17.3.8.7Zm54.4-17.1H480v-1h-22.2v1Zm21.9-.9-17 17.3.7.7 17-17.3-.7-.7ZM463 559.6h-20.8v1H463v-1Zm-20.5.9 15.7-17.3-.7-.7-15.7 17.3.7.7Zm53.2-17.1h22.2v-1h-22.2v1Zm21.8-.9-17 17.3.8.7 17-17.3-.8-.7ZM501 559.6H480v1H501v-1Zm-20.5.9 15.6-17.3-.7-.7-15.7 17.3.8.7Z" fill="#FF5917"/><defs><linearGradient id="a" x1="651" y1="1" x2="651" y2="578.4" gradientUnits="userSpaceOnUse"><stop stop-color="#9E2466"/><stop offset="1" stop-color="#213A94"/></linearGradient><linearGradient id="b" x1="651" y1="1" x2="651" y2="578.4" gradientUnits="userSpaceOnUse"><stop stop-color="#9E2466"/><stop offset="1" stop-color="#213A94"/></linearGradient><linearGradient id="c" x1="651" y1="1" x2="651" y2="578.4" gradientUnits="userSpaceOnUse"><stop stop-color="#9E2466"/><stop offset="1" stop-color="#213A94"/></linearGradient><linearGradient id="d" x1="651" y1="1" x2="651" y2="578.4" gradientUnits="userSpaceOnUse"><stop stop-color="#9E2466"/><stop offset="1" stop-color="#213A94"/></linearGradient><linearGradient id="e" x1="651" y1="1" x2="651" y2="578.4" gradientUnits="userSpaceOnUse"><stop stop-color="#9E2466"/><stop offset="1" stop-color="#213A94"/></linearGradient><linearGradient id="f" x1="651" y1="1" x2="651" y2="578.4" gradientUnits="userSpaceOnUse"><stop stop-color="#9E2466"/><stop offset="1" stop-color="#213A94"/></linearGradient><linearGradient id="g" x1="651" y1="1" x2="651" y2="578.4" gradientUnits="userSpaceOnUse"><stop stop-color="#9E2466"/><stop offset="1" stop-color="#213A94"/></linearGradient><linearGradient id="h" x1="651" y1="1" x2="651" y2="578.4" gradientUnits="userSpaceOnUse"><stop stop-color="#9E2466"/><stop offset="1" stop-color="#213A94"/></linearGradient><linearGradient id="i" x1="651" y1="1" x2="651" y2="578.4" gradientUnits="userSpaceOnUse"><stop stop-color="#9E2466"/><stop offset="1" stop-color="#213A94"/></linearGradient><linearGradient id="j" x1="651" y1="1" x2="651" y2="578.4" gradientUnits="userSpaceOnUse"><stop stop-color="#9E2466"/><stop offset="1" stop-color="#213A94"/></linearGradient><linearGradient id="k" x1="651" y1="1" x2="651" y2="578.4" gradientUnits="userSpaceOnUse"><stop stop-color="#9E2466"/><stop offset="1" stop-color="#213A94"/></linearGradient><linearGradient id="l" x1="651" y1="1" x2="651" y2="578.4" gradientUnits="userSpaceOnUse"><stop stop-color="#9E2466"/><stop offset="1" stop-color="#213A94"/></linearGradient></defs></svg>