<svg width="357" height="356" viewBox="0 0 357 356" fill="none" xmlns="http://www.w3.org/2000/svg">
<g filter="url(#filter0_d_451_140)">
<path d="M179.399 60.8249H293.318V113.261C293.318 115.095 294.046 116.853 295.343 118.149L307.143 129.949V253.682L295.343 265.482C294.046 266.779 293.318 268.537 293.318 270.37V290.318L279.493 304.143H163.364L151.564 292.343C150.267 291.046 148.509 290.318 146.676 290.318H83.278C81.4447 290.318 79.6865 291.046 78.3902 292.343L66.5899 304.143H50V233.003L61.82 221.087C63.1043 219.792 63.8249 218.042 63.8249 216.219V91.3758C63.8249 89.5522 63.1043 87.8025 61.82 86.5078L50 74.5919V47H162.615L174.531 58.82C175.826 60.1043 177.575 60.8249 179.399 60.8249Z" fill="#FF5917" fill-opacity="0.2" shape-rendering="crispEdges"/>
<path d="M172.461 60.9064L174.531 58.82L172.461 60.9064C174.306 62.7367 176.8 63.7637 179.399 63.7637H290.379V113.261C290.379 115.874 291.417 118.38 293.265 120.227L304.204 131.167V252.465L293.265 263.404C291.417 265.252 290.379 267.757 290.379 270.37V289.101L278.276 301.204H164.581L153.642 290.265C151.794 288.417 149.289 287.379 146.676 287.379H83.278C80.6653 287.379 78.1596 288.417 76.3121 290.265L65.3726 301.204H52.9388V234.213L63.9064 223.156L61.82 221.087L63.9064 223.156C65.7367 221.311 66.7637 218.818 66.7637 216.219V91.3758C66.7637 88.7769 65.7367 86.2833 63.9064 84.4382L52.9388 73.3816V49.9388H161.405L172.461 60.9064Z" stroke="#FF5917" stroke-width="5.87755" shape-rendering="crispEdges"/>
</g>
<defs>
<filter id="filter0_d_451_140" x="0.814899" y="0.274154" width="355.513" height="355.513" filterUnits="userSpaceOnUse" color-interpolation-filters="sRGB">
<feFlood flood-opacity="0" result="BackgroundImageFix"/>
<feColorMatrix in="SourceAlpha" type="matrix" values="0 0 0 0 0 0 0 0 0 0 0 0 0 0 0 0 0 0 127 0" result="hardAlpha"/>
<feOffset dy="2.45925"/>
<feGaussianBlur stdDeviation="24.5926"/>
<feComposite in2="hardAlpha" operator="out"/>
<feColorMatrix type="matrix" values="0 0 0 0 1 0 0 0 0 0.34902 0 0 0 0 0.0901961 0 0 0 0.5 0"/>
<feBlend mode="normal" in2="BackgroundImageFix" result="effect1_dropShadow_451_140"/>
<feBlend mode="normal" in="SourceGraphic" in2="effect1_dropShadow_451_140" result="shape"/>
</filter>
</defs>
</svg>
