<svg width="158" height="16" viewBox="0 0 158 16" fill="none" xmlns="http://www.w3.org/2000/svg">
<path d="M0.00843221 0.333547H4.72015V11.1764H13.5916V15.001H0.00843221V0.333547ZM25.1595 0.0969749C27.4464 0.0969749 29.3258 0.491261 30.7978 1.27983C32.0201 1.95012 32.9401 2.87669 33.5578 4.05955C34.0441 5.03212 34.2873 6.12298 34.2873 7.33212V7.92355C34.2873 8.77783 34.1427 9.62555 33.8536 10.4667C33.5776 11.3078 33.1241 12.0635 32.4933 12.7338C30.9161 14.403 28.4716 15.2375 25.1595 15.2375H24.2724C21.9855 15.2375 20.1127 14.8301 18.6538 14.0153C17.3921 13.3187 16.4721 12.3724 15.8938 11.1764C15.3944 10.1907 15.1447 9.1064 15.1447 7.92355V7.33212C15.1447 6.10983 15.3944 5.01898 15.8938 4.05955C16.4853 2.87669 17.4053 1.95012 18.6538 1.27983C20.0995 0.491261 21.9724 0.0969749 24.2724 0.0969749H25.1595ZM29.3784 7.48983C29.3784 6.46469 29.0958 5.64326 28.5307 5.02555C27.7553 4.1844 26.487 3.76383 24.7258 3.76383C22.991 3.76383 21.7227 4.1844 20.921 5.02555C20.3427 5.64326 20.0535 6.46469 20.0535 7.48983V7.74612C20.0535 8.75812 20.3558 9.58612 20.9604 10.2301C21.7621 11.0975 23.0173 11.5313 24.7258 11.5313C26.487 11.5313 27.7553 11.0975 28.5307 10.2301C29.0958 9.59926 29.3784 8.77126 29.3784 7.74612V7.48983ZM46.4718 0.0969749C48.7586 0.0969749 50.6381 0.491261 52.1101 1.27983C53.3323 1.95012 54.2523 2.87669 54.8701 4.05955C55.3563 5.03212 55.5995 6.12298 55.5995 7.33212V7.92355C55.5995 8.77783 55.4549 9.62555 55.1658 10.4667C54.8898 11.3078 54.4363 12.0635 53.8055 12.7338C52.2283 14.403 49.7838 15.2375 46.4718 15.2375H45.5846C43.2978 15.2375 41.4249 14.8301 39.9661 14.0153C38.7043 13.3187 37.7843 12.3724 37.2061 11.1764C36.7066 10.1907 36.4569 9.1064 36.4569 7.92355V7.33212C36.4569 6.10983 36.7066 5.01898 37.2061 4.05955C37.7975 2.87669 38.7175 1.95012 39.9661 1.27983C41.4118 0.491261 43.2846 0.0969749 45.5846 0.0969749H46.4718ZM50.6906 7.48983C50.6906 6.46469 50.4081 5.64326 49.8429 5.02555C49.0675 4.1844 47.7992 3.76383 46.0381 3.76383C44.3032 3.76383 43.0349 4.1844 42.2332 5.02555C41.6549 5.64326 41.3658 6.46469 41.3658 7.48983V7.74612C41.3658 8.75812 41.6681 9.58612 42.2726 10.2301C43.0743 11.0975 44.3295 11.5313 46.0381 11.5313C47.7992 11.5313 49.0675 11.0975 49.8429 10.2301C50.4081 9.59926 50.6906 8.77126 50.6906 7.74612V7.48983ZM62.8674 15.001V4.03983H57.0911V0.333547H73.3357V4.03983H67.5594V15.001H62.8674Z" fill="white"/>
<path d="M80.5909 10.8807V15.001H75.5046V10.8807H80.5909ZM91.0935 15.2573C88.8067 15.2573 87.0127 14.9681 85.7115 14.3898C84.6469 13.9167 83.8847 13.2595 83.4247 12.4184C83.1092 11.8401 82.9515 11.137 82.9515 10.309V10.1315H88.0378C88.0641 10.6178 88.2481 11.0121 88.5898 11.3144C89.1287 11.8007 90.0224 12.0438 91.2709 12.0438H91.3892C92.6641 12.0438 93.5644 11.8795 94.0901 11.551C94.3004 11.4195 94.4384 11.2684 94.5041 11.0975C94.5829 10.9267 94.6224 10.7295 94.6224 10.5061C94.6224 10.2958 94.5829 10.1184 94.5041 9.97383C94.4252 9.81612 94.2872 9.67812 94.0901 9.55983C93.6432 9.29698 92.8612 9.15898 91.7441 9.14583L89.7332 9.08669C87.3149 9.00783 85.5735 8.54126 84.5089 7.68698C83.5889 6.96412 83.1289 5.97183 83.1289 4.71012V4.53269C83.1289 3.16583 83.6284 2.12755 84.6272 1.41783C85.8627 0.563547 87.9195 0.136404 90.7978 0.136404H91.5469C94.6092 0.136404 96.7581 0.62269 97.9935 1.59526C98.8872 2.30498 99.3341 3.30383 99.3341 4.59183V4.74955H94.3267C94.2872 4.5524 94.2281 4.37498 94.1492 4.21726C94.0704 4.05955 93.9324 3.9084 93.7352 3.76383C93.2358 3.42212 92.4012 3.25126 91.2315 3.25126H91.0541C89.8975 3.25126 89.0827 3.36298 88.6095 3.5864C88.3992 3.69155 88.2481 3.8164 88.1561 3.96098C88.0772 4.0924 88.0378 4.25669 88.0378 4.45383C88.0378 4.83498 88.2152 5.11755 88.5701 5.30155C89.0038 5.5644 89.7332 5.7024 90.7584 5.71555L92.8284 5.77469C95.3649 5.85355 97.1787 6.28726 98.2695 7.07583C98.7427 7.43069 99.0778 7.8644 99.2749 8.37698C99.4852 8.8764 99.5904 9.46126 99.5904 10.1315V10.3681C99.5904 11.2618 99.4195 12.0175 99.0778 12.6353C98.6178 13.437 97.8489 14.0547 96.7712 14.4884C95.4964 15.001 93.7812 15.2573 91.6258 15.2573H91.0935ZM110.868 15.2178C108.476 15.2178 106.583 14.771 105.19 13.8773C104.099 13.1807 103.317 12.1621 102.844 10.8215C102.528 9.92783 102.371 8.83698 102.371 7.54898V0.333547H107.063V7.48983C107.063 8.5544 107.299 9.40212 107.772 10.033C108.39 10.9004 109.501 11.3341 111.104 11.3341H111.203C112.793 11.3341 113.897 10.9004 114.515 10.033C114.962 9.41526 115.185 8.56755 115.185 7.48983V0.333547H119.877V7.54898C119.877 8.7844 119.706 9.87526 119.364 10.8215C118.891 12.1358 118.096 13.1544 116.979 13.8773C115.586 14.771 113.739 15.2178 111.439 15.2178H110.868ZM137.101 7.94326C138.153 8.1404 138.948 8.51498 139.487 9.06698C140.104 9.71098 140.413 10.5521 140.413 11.5904V13.5027C140.413 13.989 140.439 14.311 140.492 14.4687C140.531 14.6527 140.584 14.7973 140.65 14.9024V15.001H135.78C135.741 14.8695 135.715 14.771 135.701 14.7053C135.675 14.5213 135.662 14.2978 135.662 14.035V12.8127C135.662 12.3264 135.616 11.919 135.524 11.5904C135.432 11.2618 135.281 10.999 135.071 10.8018C134.65 10.4207 133.927 10.2301 132.902 10.2301H127.954V15.001H123.242V0.333547H134.124C136.556 0.333547 138.271 0.773832 139.27 1.6544C139.953 2.27212 140.295 3.15269 140.295 4.29612V4.47355C140.295 5.39355 139.979 6.16898 139.349 6.79983C138.77 7.37812 138.021 7.75926 137.101 7.94326ZM127.954 6.6224H133.493C134.19 6.6224 134.696 6.4844 135.011 6.2084C135.261 5.99812 135.386 5.66955 135.386 5.22269V5.18326C135.386 4.76269 135.261 4.44726 135.011 4.23698C134.683 3.97412 134.177 3.84269 133.493 3.84269H127.954V6.6224ZM143.438 0.333547H157.376V3.78355H148.13V6.16898H157.1V9.69783H148.13V15.001H143.438V0.333547Z" fill="#FF5917"/>
</svg>
